<svg width="64" height="64" viewBox="0 0 64 64" fill="none" xmlns="http://www.w3.org/2000/svg">
  <rect width="64" height="64" rx="16" fill="url(#paint0_linear)" />
  <path d="M16 42V22C16 19.7909 17.7909 18 20 18H28C30.2091 18 32 19.7909 32 22V42H16Z" fill="white" fill-opacity="0.2" />
  <path d="M32 42V22C32 19.7909 33.7909 18 36 18H44C46.2091 18 48 19.7909 48 22V42H32Z" fill="white" fill-opacity="0.1" />
  <path d="M16 42C16 44.2091 17.7909 46 20 46H44C46.2091 46 48 44.2091 48 42H16Z" fill="white" fill-opacity="0.15" />
  <path d="M24 26H40.5" stroke="white" stroke-width="2.5" stroke-linecap="round" />
  <path d="M24 31H40.5" stroke="white" stroke-width="2.5" stroke-linecap="round" />
  <path d="M24 36H36" stroke="white" stroke-width="2.5" stroke-linecap="round" />
  <circle cx="44" cy="22" r="4" fill="#34D399" />
  <defs>
    <linearGradient id="paint0_linear" x1="0" y1="0" x2="64" y2="64" gradientUnits="userSpaceOnUse">
      <stop stop-color="#2563EB" />
      <stop offset="1" stop-color="#4F46E5" />
    </linearGradient>
  </defs>
</svg>